inDegrees=no
num_controls=7
num_derivatives=13
num_iterations=49
num_multipliers=7
num_parameters=0
num_slacks=7
num_states=26
objective=0.426467
objective_accelerations=0.060088
objective_balance=0.001141
objective_effort=0.015656
objective_height=0.343620
objective_ligament=0.005962
solver_duration=720.881964
status=Solve_Succeeded
success=true
DataType=double
version=3
OpenSimVersion=4.5
endheader
time	/jointset/ground_pelvis/pelvis_tilt/value	/jointset/ground_pelvis/pelvis_tx/value	/jointset/ground_pelvis/pelvis_ty/value	/jointset/hip_l/hip_flexion_l/value	/jointset/hip_l/hip_adduction_l/value	/jointset/hip_l/hip_rotation_l/value	/jointset/back/lumbar_extension/value	/jointset/patellofemoral_l/patellar_flexion_l/value	/jointset/knee_l/knee_flexion_l/value	/jointset/knee_l/knee_adduction_l/value	/jointset/knee_l/knee_rotation_l/value	/jointset/ankle_l/ankle_angle_l/value	/jointset/subtalar_l/subtalar_angle_l/value	/jointset/ground_pelvis/pelvis_tilt/speed	/jointset/ground_pelvis/pelvis_tx/speed	/jointset/ground_pelvis/pelvis_ty/speed	/jointset/hip_l/hip_flexion_l/speed	/jointset/hip_l/hip_adduction_l/speed	/jointset/hip_l/hip_rotation_l/speed	/jointset/back/lumbar_extension/speed	/jointset/patellofemoral_l/patellar_flexion_l/speed	/jointset/knee_l/knee_flexion_l/speed	/jointset/knee_l/knee_adduction_l/speed	/jointset/knee_l/knee_rotation_l/speed	/jointset/ankle_l/ankle_angle_l/speed	/jointset/subtalar_l/subtalar_angle_l/speed	/forceset/tau_hip_flexion_l	/forceset/tau_hip_adduction_l	/forceset/tau_hip_rotation_l	/forceset/tau_knee_flexion_l	/forceset/tau_ankle_angle_l	/forceset/tau_subtalar_angle_l	/forceset/tau_lumbar_extension	lambda_cid13_p0	lambda_cid13_p1	lambda_cid13_p2	lambda_cid13_p3	lambda_cid13_p4	lambda_cid13_p5	lambda_cid14_p0	/jointset/ground_pelvis/pelvis_tilt/accel	/jointset/ground_pelvis/pelvis_tx/accel	/jointset/ground_pelvis/pelvis_ty/accel	/jointset/hip_l/hip_flexion_l/accel	/jointset/hip_l/hip_adduction_l/accel	/jointset/hip_l/hip_rotation_l/accel	/jointset/back/lumbar_extension/accel	/jointset/patellofemoral_l/patellar_flexion_l/accel	/jointset/knee_l/knee_flexion_l/accel	/jointset/knee_l/knee_adduction_l/accel	/jointset/knee_l/knee_rotation_l/accel	/jointset/ankle_l/ankle_angle_l/accel	/jointset/subtalar_l/subtalar_angle_l/accel	gamma_cid13_p0	gamma_cid13_p1	gamma_cid13_p2	gamma_cid13_p3	gamma_cid13_p4	gamma_cid13_p5	gamma_cid14_p0
1	-0.4631561560290444	-0.003939296058235855	0.5861662632869161	1.732224740447743	-0.3451397194718416	0.1348721143164359	-0.436325416320047	1.527584624984782	1.527584624984736	0.07037632492226548	-0.1745244647525499	0.435150718977712	0.2517719580136722	-0.1411042974713842	0.002261070640100584	0.0334107517295914	0.02255058963313433	-0.000894062476437903	-0.0539963646896358	2.531543279518182e-05	-0.1499570542757581	-0.1499570542757546	-0.006379226033706248	-0.0001335915581134045	-0.04436039142742031	-0.02834710236747486	-0.2431261834610885	0.08241945464684929	-0.01498669508295881	-0.2935656693159159	-0.01586293156505953	-0.01514939321269999	0.2108680733022385	-41.31737378543752	24.65803326948157	-16.59895002873828	3.704946459090184	-544.8188535125912	-29.48760283610017	-0.02365132713516139	1.440027212416395	0.249284829387596	2.06416049398626	-6.766534046093426	-0.242644031211535	-1.536617461522658	-0.02200323668338912	-5.671453035440507	-5.671453035440448	-0.9379737742478645	-0.02880538130134797	-0.8378304264948641	-0.8939649271323793	-1.312529132256974e-09	-1.328415532760737e-07	-8.377748908603435e-08	-1.091644585843012e-08	-6.935575060081226e-09	-1.937508493785816e-07	1.011787859957859e-08
1.01	-0.4644958891313908	-0.003904221779442359	0.5866033839284304	1.732112948788149	-0.3451602116550633	0.1342577241311637	-0.4363253621933637	1.525801802534747	1.525801802534645	0.07026407597190915	-0.174525743236287	0.4346651378270955	0.2514446915818161	-0.1268302973335742	0.00476008709501867	0.05400624543713456	-0.04490440478764523	-0.003197972384066411	-0.0688762883734431	-1.644487848157484e-05	-0.2066097240873278	-0.2066097240873278	-0.01606584205514055	-0.000120688347780311	-0.05277280427872263	-0.0371006183550429	-0.2435363406792434	0.08239549424382446	-0.01500037837382893	-0.2926306092027326	-0.01626323926041076	-0.01508296657424489	0.2110772068902576	-41.40037056656688	24.5875571065306	-16.52356704093938	3.62845954275171	-544.6577489919547	-29.43020828163226	-0.0236685873457657	1.42289077217425	0.2511511959892861	2.056171918203876	-6.734304172144739	-0.2232853631125892	-1.462875162353672	0.004444354180509302	-5.662519789346547	-5.662519789347091	-0.9833066821495479	0.01651551190340101	-0.8454995581447543	-0.8651679378818026	-8.636554200618467e-10	-1.767863551727062e-07	-1.172822890399468e-07	-2.067149451629864e-08	-1.106091378248435e-08	-2.518155485064643e-07	1.288162787362869e-08
1.02	-0.4656925213608172	-0.003843969107610595	0.5872462451288332	1.731326742777934	-0.3452035471158764	0.1334946956409456	-0.4363257843132821	1.52345238421953	1.52345238421937	0.07005510062813103	-0.1745268572199805	0.4340949219792263	0.2510300653894218	-0.1124841228873254	0.007296749247753978	0.07455886350730555	-0.112332280491404	-0.005462717994658093	-0.08372402567900661	-6.993388854457929e-05	-0.2632762273121507	-0.2632762273121539	-0.02572450471890838	-0.0001006915493365802	-0.06128733087789914	-0.04581905447512254	-0.2439464978973946	0.0823715338408012	-0.0150140616646847	-0.2916955490895484	-0.01666354695576228	-0.0150165399357876	0.2112863404782802	-41.48540593467666	24.5141471024704	-16.44395712511379	3.542697896761831	-544.6043400293053	-29.37880500763205	-0.02368818239703827	1.454462074104154	0.2568139689510364	2.055585366511829	-6.761110302689259	-0.2348111718041631	-1.530180185873892	-0.02434897644065399	-5.674219718091122	-5.674219718091042	-0.9323831027145658	-0.02738666367920749	-0.8582531760697061	-0.8869489536346918	-5.213274797726282e-10	-2.191285787452872e-07	-1.488121219221774e-07	-2.994306842135463e-08	-1.509817122980314e-08	-3.052247548276603e-07	1.521714601784698e-08
1.03	-0.4667452570802234	-0.003758125599384779	0.5880943344954614	1.72986651398726	-0.3452693085681005	0.1325833607855358	-0.4363267593547153	1.520536336820763	1.520536336820654	0.06974975216866866	-0.1745277437810295	0.433438980411043	0.2505284499473738	-0.09804349385022212	0.009881860510398759	0.09504362981059584	-0.1796976267998462	-0.007680839287670877	-0.09853260327035229	-0.000123291859066526	-0.3199252109282057	-0.3199252109282086	-0.03533774994621604	-7.613794639916916e-05	-0.06992477388914881	-0.05449669705998043	-0.2441852817682515	0.08238351342159728	-0.01499343090373843	-0.2905093513512532	-0.01707046380212469	-0.01493367852284616	0.2113958505936426	-41.54813132113313	24.41796873848949	-16.34732552600375	3.44154149482467	-544.2624914829591	-29.30441703800933	-0.02371419005250354	1.441792331215418	0.2608380237558833	2.042611409701048	-6.72186929704213	-0.2139728976408084	-1.454650138856895	0.004438173398821898	-5.659034980184029	-5.659034980184008	-0.9746946657358564	0.0173956651618234	-0.8700702581629095	-0.8570080860356919	-1.800867412375524e-10	-2.614544494778268e-07	-1.803218020791867e-07	-3.920970891056558e-08	-1.913452988860067e-08	-3.585864561202167e-07	1.754829445665883e-08
1.04	-0.4676530007067183	-0.003646135314765563	0.5891468093546156	1.727733107233077	-0.3453569832911731	0.131524249435595	-0.4363282144996907	1.51705404012647	1.517054040126413	0.06934849137033829	-0.1745283809474749	0.4326959483338449	0.2499402908444523	-0.08348570430503807	0.01252610452643399	0.1154359620124306	-0.2469678731931036	-0.0098453721643225	-0.1132793245853776	-0.0001659545993159901	-0.3765260864171134	-0.3765260864171163	-0.04490697249340349	-5.081262819747142e-05	-0.0787054326808117	-0.06312778664981283	-0.244424065639105	0.08239549300239463	-0.01497280014277699	-0.2893231536129571	-0.0174773806484875	-0.01485081710990308	0.2115053607090082	-41.61314641394195	24.31890479340815	-16.24647959983129	3.331668732227062	-544.0299538165395	-29.23699273791407	-0.02374264978810687	1.477894175720301	0.2686405196291229	2.037098546220722	-6.742090319652292	-0.224093488531925	-1.517808930609801	-0.02220993038613028	-5.66459809266164	-5.66459809266167	-0.9235785666905224	-0.02723232062633912	-0.8868963321523586	-0.8776383546295875	-1.53489314828262e-10	-3.008584956723129e-07	-2.089058950617318e-07	-4.715417598436524e-08	-2.312199105111433e-08	-4.058244569354039e-07	1.94366613550251e-08
1.05	-0.4684145100434709	-0.00350736968798205	0.5904026703482247	1.72492756561467	-0.3454660105864217	0.1303179627399119	-0.4363299985921502	1.513006055363289	1.513006055363238	0.06885185064850846	-0.174528760892519	0.4318643288913823	0.2492660759908907	-0.06878970822011107	0.01524061640797277	0.1357134966260061	-0.3141161954710686	-0.01194848027211562	-0.1279632680062993	-0.000184763319008211	-0.4330549833686742	-0.4330549833686748	-0.05441080266871585	-2.334069785498811e-05	-0.08764835188156395	-0.07170464273172182	-0.2444972165622047	0.08245251592217846	-0.0149182921121984	-0.2879028548777131	-0.01787606358666314	-0.01475755392692801	0.2115221213731992	-41.65322083847898	24.20105266169008	-16.13132615613572	3.201996108982257	-543.5282553478888	-29.14309617374556	-0.02377769567477313	1.46941999007272	0.2748847677690082	2.019664444566986	-6.697565593296905	-0.2016385958425546	-1.441482071128505	0.009198743278038445	-5.644657349993488	-5.644657349993132	-0.9622505740254963	0.01794300844956793	-0.9024894255505189	-0.8460452770050236	-1.367244919229007e-10	-3.401712348499848e-07	-2.373985634450749e-07	-5.505732513893331e-08	-2.710792416686912e-08	-4.528710921106734e-07	2.131119133025244e-08
